<svg id="Layer_1" data-name="Layer 1" xmlns="http://www.w3.org/2000/svg" viewBox="0 0 78 78"><defs><style>.cls-1{fill:#39b54a;}.cls-2{fill:#87cec1;}.cls-3{fill:#22b573;}.cls-4{fill:#027878;}</style></defs><title>logo</title><path class="cls-1" d="M67.42,12.42H51.27L39.85,1,28.42,12.42H12.27V28.58L.85,40,12.27,51.42V67.58H28.42L39.85,79,51.27,67.58H67.42V51.42L78.85,40,67.42,28.58ZM76.05,40,65.45,50.6v15h-15L39.85,76.2,29.24,65.6h-15v-15L3.64,40,14.25,29.4v-15h15L39.85,3.8l10.6,10.6h15v15Z" transform="translate(-0.85 -1)"/><path class="cls-2" d="M64.52,15.32H50.07L39.85,5.1,29.63,15.32H15.17V29.78L5,40,15.17,50.22V64.68H29.63L39.85,74.9,50.07,64.68H64.52V50.22L74.75,40,64.52,29.78ZM30.62,62.87V59.81l9.23-4.6,8.77,4.38v3.73L39.85,72.1ZM72,40l-9.4,9.4V62.7H50.6V58.37L42.06,54.1l4.84-2.41.07,0h0l19.91-10,1-.52-7.13-9.81H58.34L65,40.44,46.05,49.9,39.85,53l-8.69-4.35L14.75,40.44l6.6-9.09H18.91l-7.14,9.81,1.05.52L37.63,54.1l-9,4.49V62.7H17.15V49.4L7.75,40l9.4-9.4V17.3h13.3l9.4-9.4,9.4,9.4h13.3V30.6Z" transform="translate(-0.85 -1)"/><path class="cls-1" d="M39.85,50.76,63.72,40.19l-6-8.84-2.55-2.11,6.66,10.21-2.27.15c-8.43.56-19.11,7.62-19.22,7.69l-.53.36-.54-.36c-.11-.07-10.79-7.13-19.21-7.69l-2.27-.15,6.65-10.21-2.55,2.11-6,8.84Z" transform="translate(-0.85 -1)"/><path class="cls-3" d="M39.85,46s10.9-7.76,19.69-8.38L54,29.54a13.39,13.39,0,0,0-14.14,5.81,13.39,13.39,0,0,0-14.14-5.81l-5.55,8.09C28.94,38.25,39.85,46,39.85,46Z" transform="translate(-0.85 -1)"/><polygon class="cls-4" points="41.37 15.78 40.35 18.91 37.06 18.91 39.72 20.85 38.7 23.98 41.37 22.05 44.04 23.98 43.02 20.85 45.68 18.91 42.39 18.91 41.37 15.78"/><path class="cls-2" d="M36.75,21.13a5.88,5.88,0,0,1,4.45-5.7,6.66,6.66,0,0,0-1.56-.18A7,7,0,1,0,45.27,26.4a6,6,0,0,1-2.63.62A5.89,5.89,0,0,1,36.75,21.13Z" transform="translate(-0.85 -1)"/></svg>